<svg viewBox="0 0 512 512" fill="none" xmlns="http://www.w3.org/2000/svg">
  <!-- Terracotta plaster textured background circle -->
  <circle cx="256" cy="256" r="230" fill="#c37d63" />
  <circle cx="256" cy="256" r="200" stroke="#f4eee3" stroke-width="6" opacity="0.3" />
  
  <!-- Lapis lazuli archway -->
  <path d="M 160 380 V 220 C 160 160, 200 120, 256 120 C 312 120, 352 160, 352 220 V 380" stroke="#1d3b6a" stroke-width="16" stroke-linecap="round" fill="none" />
  
  <!-- Stylized angel silhouette in ivory ochre -->
  <circle cx="256" cy="210" r="28" fill="#ebdcc0" />
  <!-- Halo -->
  <circle cx="256" cy="210" r="38" stroke="#ebdcc0" stroke-width="3" fill="none" stroke-dasharray="6 4" />
  <!-- Body/Robes -->
  <path d="M 220 360 C 220 320, 240 260, 256 260 C 272 260, 292 320, 292 360 Z" fill="#ebdcc0" />
  <!-- Left Wing -->
  <path d="M 235 245 C 190 220, 140 240, 155 300 C 165 340, 215 300, 235 270 Z" fill="#e2b158" />
  <!-- Right Wing -->
  <path d="M 277 245 C 322 220, 372 240, 357 300 C 347 340, 297 300, 277 270 Z" fill="#e2b158" />
</svg>
